<mxfile host="app.diagrams.net" modified="2023-04-15T23:04:43.714Z" agent="Mozilla/5.0 (X11; Linux x86_64) AppleWebKit/537.36 (KHTML, like Gecko) Chrome/112.0.0.0 Safari/537.36" version="21.1.2" etag="miAjmwk-P_nm_ItjXFmU" type="github">
  <diagram name="第 1 页" id="JYCs8Ta74gJ0tMKYEE_O">
    <mxGraphModel>
      <root>
        <mxCell id="0" />
        <mxCell id="1" parent="0" />
      </root>
    </mxGraphModel>
  </diagram>
</mxfile>
